<mxfile host="app.diagrams.net" modified="2021-11-01T17:35:12.371Z" agent="5.0 (Macintosh; Intel Mac OS X 10_15_7) AppleWebKit/537.36 (KHTML, like Gecko) Chrome/94.0.4606.61 Safari/537.36" etag="CghaBtTSEtLhoad3I7vF" version="15.6.4" type="github">
  <diagram id="IzDaub6yw_Z8fjdyKSNb" name="Page-1">
    <mxGraphModel dx="946" dy="550" grid="1" gridSize="10" guides="1" tooltips="1" connect="1" arrows="1" fold="1" page="1" pageScale="1" pageWidth="827" pageHeight="1169" math="0" shadow="0">
      <root>
        <mxCell id="0" />
        <mxCell id="1" parent="0" />
        <mxCell id="VDyYSvqMJ3oBeyyhVTT8-2" value="" style="rounded=1;whiteSpace=wrap;html=1;fontColor=default;strokeColor=default;fillColor=default;rotation=-90;" vertex="1" parent="1">
          <mxGeometry x="210" y="240" width="440" height="220" as="geometry" />
        </mxCell>
        <mxCell id="VDyYSvqMJ3oBeyyhVTT8-3" value="" style="endArrow=none;html=1;rounded=0;fontColor=default;strokeColor=default;labelBackgroundColor=default;exitX=0.85;exitY=1;exitDx=0;exitDy=0;exitPerimeter=0;entryX=0.85;entryY=0;entryDx=0;entryDy=0;entryPerimeter=0;" edge="1" parent="1" source="VDyYSvqMJ3oBeyyhVTT8-2" target="VDyYSvqMJ3oBeyyhVTT8-2">
          <mxGeometry width="50" height="50" relative="1" as="geometry">
            <mxPoint x="370" y="220" as="sourcePoint" />
            <mxPoint x="330" y="196" as="targetPoint" />
          </mxGeometry>
        </mxCell>
        <mxCell id="VDyYSvqMJ3oBeyyhVTT8-4" value="" style="html=1;shadow=0;dashed=0;align=center;verticalAlign=middle;shape=mxgraph.arrows2.jumpInArrow;dy=5;dx=15;arrowHead=42;fontColor=default;strokeColor=default;fillColor=default;rotation=0;flipH=1;" vertex="1" parent="1">
          <mxGeometry x="330" y="160" width="30" height="20" as="geometry" />
        </mxCell>
        <mxCell id="VDyYSvqMJ3oBeyyhVTT8-5" value="&lt;h1&gt;Settings&lt;/h1&gt;" style="text;html=1;resizable=0;autosize=1;align=center;verticalAlign=middle;points=[];fillColor=none;strokeColor=none;rounded=0;fontColor=default;" vertex="1" parent="1">
          <mxGeometry x="375" y="145" width="110" height="50" as="geometry" />
        </mxCell>
        <mxCell id="VDyYSvqMJ3oBeyyhVTT8-6" value="Create Account" style="text;html=1;resizable=0;autosize=1;align=center;verticalAlign=middle;points=[];fillColor=none;strokeColor=none;rounded=0;fontColor=default;labelBackgroundColor=#B3B3B3;" vertex="1" parent="1">
          <mxGeometry x="380" y="220" width="100" height="20" as="geometry" />
        </mxCell>
        <mxCell id="VDyYSvqMJ3oBeyyhVTT8-8" value="" style="endArrow=none;html=1;rounded=0;fontColor=default;strokeColor=default;labelBackgroundColor=default;exitX=0.85;exitY=1;exitDx=0;exitDy=0;exitPerimeter=0;entryX=0.85;entryY=0;entryDx=0;entryDy=0;entryPerimeter=0;" edge="1" parent="1">
          <mxGeometry width="50" height="50" relative="1" as="geometry">
            <mxPoint x="540" y="260" as="sourcePoint" />
            <mxPoint x="320" y="260" as="targetPoint" />
          </mxGeometry>
        </mxCell>
        <mxCell id="VDyYSvqMJ3oBeyyhVTT8-9" value="Username:" style="text;html=1;resizable=0;autosize=1;align=center;verticalAlign=middle;points=[];fillColor=none;strokeColor=none;rounded=0;labelBackgroundColor=none;fontColor=default;" vertex="1" parent="1">
          <mxGeometry x="330" y="280" width="70" height="20" as="geometry" />
        </mxCell>
        <mxCell id="VDyYSvqMJ3oBeyyhVTT8-10" value="Password:" style="text;html=1;resizable=0;autosize=1;align=center;verticalAlign=middle;points=[];fillColor=none;strokeColor=none;rounded=0;labelBackgroundColor=none;fontColor=default;" vertex="1" parent="1">
          <mxGeometry x="330" y="320" width="70" height="20" as="geometry" />
        </mxCell>
        <mxCell id="VDyYSvqMJ3oBeyyhVTT8-11" value="_______________" style="text;html=1;resizable=0;autosize=1;align=center;verticalAlign=middle;points=[];fillColor=none;strokeColor=none;rounded=0;labelBackgroundColor=none;fontColor=default;" vertex="1" parent="1">
          <mxGeometry x="390" y="280" width="120" height="20" as="geometry" />
        </mxCell>
        <mxCell id="VDyYSvqMJ3oBeyyhVTT8-13" value="_______________" style="text;html=1;resizable=0;autosize=1;align=center;verticalAlign=middle;points=[];fillColor=none;strokeColor=none;rounded=0;labelBackgroundColor=none;fontColor=default;" vertex="1" parent="1">
          <mxGeometry x="390" y="320" width="120" height="20" as="geometry" />
        </mxCell>
        <mxCell id="VDyYSvqMJ3oBeyyhVTT8-14" value="" style="endArrow=none;html=1;rounded=0;fontColor=default;strokeColor=default;labelBackgroundColor=default;exitX=0.85;exitY=1;exitDx=0;exitDy=0;exitPerimeter=0;entryX=0.85;entryY=0;entryDx=0;entryDy=0;entryPerimeter=0;" edge="1" parent="1">
          <mxGeometry width="50" height="50" relative="1" as="geometry">
            <mxPoint x="540" y="370" as="sourcePoint" />
            <mxPoint x="320" y="370" as="targetPoint" />
          </mxGeometry>
        </mxCell>
        <mxCell id="VDyYSvqMJ3oBeyyhVTT8-15" value="Enable Dark Mode" style="text;html=1;resizable=0;autosize=1;align=center;verticalAlign=middle;points=[];fillColor=none;strokeColor=none;rounded=0;labelBackgroundColor=none;fontColor=default;" vertex="1" parent="1">
          <mxGeometry x="355" y="410" width="110" height="20" as="geometry" />
        </mxCell>
        <mxCell id="VDyYSvqMJ3oBeyyhVTT8-16" value="" style="whiteSpace=wrap;html=1;aspect=fixed;labelBackgroundColor=none;fontColor=default;strokeColor=default;fillColor=default;align=center;" vertex="1" parent="1">
          <mxGeometry x="472" y="415" width="10" height="10" as="geometry" />
        </mxCell>
        <mxCell id="VDyYSvqMJ3oBeyyhVTT8-17" value="" style="verticalLabelPosition=bottom;verticalAlign=top;html=1;shape=mxgraph.basic.tick;labelBackgroundColor=none;fontColor=default;strokeColor=default;fillColor=default;" vertex="1" parent="1">
          <mxGeometry x="472" y="405" width="16" height="20" as="geometry" />
        </mxCell>
        <mxCell id="VDyYSvqMJ3oBeyyhVTT8-19" value="" style="endArrow=none;html=1;rounded=0;fontColor=default;strokeColor=default;labelBackgroundColor=default;exitX=0.85;exitY=1;exitDx=0;exitDy=0;exitPerimeter=0;entryX=0.85;entryY=0;entryDx=0;entryDy=0;entryPerimeter=0;" edge="1" parent="1">
          <mxGeometry width="50" height="50" relative="1" as="geometry">
            <mxPoint x="540" y="460" as="sourcePoint" />
            <mxPoint x="320" y="460" as="targetPoint" />
          </mxGeometry>
        </mxCell>
        <mxCell id="VDyYSvqMJ3oBeyyhVTT8-20" value="" style="verticalLabelPosition=bottom;verticalAlign=top;html=1;shape=mxgraph.basic.patternFillRect;fillStyle=diag;step=5;fillStrokeWidth=0.2;fillStrokeColor=#dddddd;labelBackgroundColor=none;fontColor=default;strokeColor=default;fillColor=default;" vertex="1" parent="1">
          <mxGeometry x="337.5" y="530" width="55" height="30" as="geometry" />
        </mxCell>
        <mxCell id="VDyYSvqMJ3oBeyyhVTT8-22" value="" style="verticalLabelPosition=bottom;verticalAlign=top;html=1;shape=mxgraph.basic.patternFillRect;fillStyle=diag;step=5;fillStrokeWidth=0.2;fillStrokeColor=#dddddd;labelBackgroundColor=none;fontColor=default;strokeColor=default;fillColor=default;" vertex="1" parent="1">
          <mxGeometry x="402.5" y="530" width="55" height="30" as="geometry" />
        </mxCell>
        <mxCell id="VDyYSvqMJ3oBeyyhVTT8-23" value="" style="verticalLabelPosition=bottom;verticalAlign=top;html=1;shape=mxgraph.basic.patternFillRect;fillStyle=diag;step=5;fillStrokeWidth=0.2;fillStrokeColor=#dddddd;labelBackgroundColor=none;fontColor=default;strokeColor=default;fillColor=default;" vertex="1" parent="1">
          <mxGeometry x="465" y="530" width="55" height="30" as="geometry" />
        </mxCell>
        <mxCell id="VDyYSvqMJ3oBeyyhVTT8-24" value="Account" style="text;html=1;resizable=0;autosize=1;align=center;verticalAlign=middle;points=[];fillColor=none;strokeColor=none;rounded=0;labelBackgroundColor=none;fontColor=default;" vertex="1" parent="1">
          <mxGeometry x="335" y="535" width="60" height="20" as="geometry" />
        </mxCell>
        <mxCell id="VDyYSvqMJ3oBeyyhVTT8-25" value="Home" style="text;html=1;resizable=0;autosize=1;align=center;verticalAlign=middle;points=[];fillColor=none;strokeColor=none;rounded=0;labelBackgroundColor=none;fontColor=default;" vertex="1" parent="1">
          <mxGeometry x="405" y="535" width="50" height="20" as="geometry" />
        </mxCell>
        <mxCell id="VDyYSvqMJ3oBeyyhVTT8-26" value="Search" style="text;html=1;resizable=0;autosize=1;align=center;verticalAlign=middle;points=[];fillColor=none;strokeColor=none;rounded=0;labelBackgroundColor=none;fontColor=default;" vertex="1" parent="1">
          <mxGeometry x="467.5" y="535" width="50" height="20" as="geometry" />
        </mxCell>
      </root>
    </mxGraphModel>
  </diagram>
</mxfile>
